<svg id="Capa_1" enable-background="new 0 0 512 512" height="512" viewBox="0 0 512 512" width="512" xmlns="http://www.w3.org/2000/svg"><g><g><path d="m3.806 354.019v-338.407c0-4.418 3.582-8 8-8h68.065c4.418 0 8 3.582 8 8v338.406h-84.065z" fill="#efd27c"/><path d="m79.752 7.612h-23.332c4.484 0 8.119 3.635 8.119 8.119v338.288h23.332v-338.288c0-4.484-3.635-8.119-8.119-8.119z" fill="#eabc73"/><g fill="#eaa96a"><path d="m87.871 216.98h-16.288c-4.204 0-7.611-3.408-7.611-7.611 0-4.204 3.408-7.612 7.611-7.612h16.288z"/><path d="m87.871 250.605h-33.363c-4.204 0-7.611-3.408-7.611-7.612s3.408-7.611 7.611-7.611h33.363z"/><path d="m87.871 183.35h-33.363c-4.204 0-7.611-3.408-7.611-7.611 0-4.204 3.408-7.611 7.611-7.611h33.363z"/><path d="m87.871 149.727h-16.288c-4.204 0-7.611-3.408-7.611-7.611 0-4.204 3.408-7.611 7.611-7.611h16.288z"/><path d="m87.871 116.096h-33.363c-4.204 0-7.611-3.408-7.611-7.611 0-4.204 3.408-7.612 7.611-7.612h33.363z"/><path d="m87.871 82.472h-16.288c-4.204 0-7.611-3.408-7.611-7.612s3.408-7.611 7.611-7.611h16.288z"/><path d="m87.871 48.841h-33.363c-4.204 0-7.611-3.408-7.611-7.611 0-4.204 3.408-7.611 7.611-7.611h33.363z"/><path d="m87.871 284.228h-16.288c-4.204 0-7.611-3.408-7.611-7.612s3.408-7.611 7.611-7.611h16.288z"/><path d="m87.871 317.853h-33.363c-4.204 0-7.611-3.408-7.611-7.611 0-4.204 3.408-7.611 7.611-7.611h33.363z"/></g></g><g><path d="m500.194 512h-338.407v-84.065h338.406c4.418 0 8 3.582 8 8v68.065c.001 4.418-3.581 8-7.999 8z" fill="#efd27c"/><path d="m500.075 427.935h-23.342c4.484 0 8.119 3.635 8.119 8.119v67.827c0 4.484-3.635 8.119-8.119 8.119h23.342c4.484 0 8.119-3.635 8.119-8.119v-67.827c0-4.484-3.635-8.119-8.119-8.119z" fill="#eabc73"/><g fill="#eaa96a"><path d="m381.31 427.935v16.288c0 4.204-3.408 7.611-7.612 7.611s-7.611-3.408-7.611-7.611v-16.288z"/><path d="m414.934 427.935v33.363c0 4.204-3.408 7.612-7.611 7.612-4.204 0-7.612-3.408-7.612-7.612v-33.363z"/><path d="m347.679 427.935v33.363c0 4.204-3.408 7.612-7.612 7.612s-7.611-3.408-7.611-7.612v-33.363z"/><path d="m314.056 427.935v16.288c0 4.204-3.408 7.611-7.612 7.611s-7.611-3.408-7.611-7.611v-16.288z"/><path d="m280.426 427.935v33.363c0 4.204-3.408 7.612-7.611 7.612-4.204 0-7.612-3.408-7.612-7.612v-33.363z"/><path d="m246.801 427.935v16.288c0 4.204-3.408 7.611-7.611 7.611-4.204 0-7.612-3.408-7.612-7.611v-16.288z"/><path d="m213.171 427.935v33.363c0 4.204-3.408 7.612-7.612 7.612s-7.611-3.408-7.611-7.612v-33.363z"/><path d="m448.558 427.935v16.288c0 4.204-3.408 7.611-7.612 7.611s-7.611-3.408-7.611-7.611v-16.288z"/><path d="m482.182 427.935v33.363c0 4.204-3.408 7.612-7.611 7.612-4.204 0-7.612-3.408-7.612-7.612v-33.363z"/></g></g><path d="m323.252 360.683h109.572c4.484 0 8.119-3.635 8.119-8.119v-178.853h-117.691z" fill="#a6ccfb"/><path d="m417.601 173.711v178.853c0 4.484-3.635 8.119-8.119 8.119h23.342c4.484 0 8.119-3.635 8.119-8.119v-178.853z" fill="#8cbdf9"/><path d="m323.252 41.237 143.337 127.41c2.79 2.48 1.036 7.094-2.697 7.094h-140.64z" fill="#4c5e71"/><path d="m466.588 168.647-143.336-127.41v20.748l119.995 106.662c2.79 2.48 1.036 7.093-2.697 7.093h23.342c3.732.001 5.486-4.613 2.696-7.093z" fill="#3c4958"/><g><g fill="#d0d9e2"><path d="m309.903 60.716c1.798 0 3.604-.633 5.054-1.923l13.351-11.867c3.142-2.793 3.425-7.604.632-10.745-2.792-3.142-7.603-3.427-10.745-.632l-13.351 11.867c-3.142 2.793-3.425 7.604-.632 10.745 1.503 1.692 3.592 2.555 5.691 2.555z"/><path d="m214.252 145.74c1.798 0 3.604-.633 5.054-1.923l21.766-19.347c3.142-2.793 3.425-7.604.632-10.745-2.793-3.142-7.604-3.427-10.746-.632l-21.766 19.347c-3.142 2.793-3.425 7.604-.632 10.745 1.504 1.692 3.593 2.555 5.692 2.555z"/><path d="m278.33 70.984-21.766 19.347c-3.142 2.793-3.425 7.604-.632 10.745 1.504 1.692 3.593 2.555 5.692 2.555 1.798 0 3.604-.633 5.054-1.923l21.766-19.347c3.142-2.793 3.425-7.604.632-10.745s-7.605-3.427-10.746-.632z"/><path d="m191.471 168.314c2.035-2.829 1.916-6.785-.495-9.497-2.793-3.142-7.604-3.428-10.746-.632l-13.352 11.868c-2.362 2.099-3.181 5.44-2.058 8.393 1.123 2.954 3.954 4.907 7.115 4.907h17.864c4.204 0 7.611-3.407 7.611-7.611.001-3.63-2.54-6.666-5.939-7.428z"/><path d="m222.745 175.741c0 4.204 3.408 7.611 7.611 7.611h33.295c4.204 0 7.612-3.407 7.612-7.611s-3.408-7.611-7.612-7.611h-33.295c-4.203 0-7.611 3.407-7.611 7.611z"/><path d="m305.388 183.353h17.864c4.204 0 7.611-3.407 7.611-7.611s-3.408-7.611-7.611-7.611h-17.864c-4.204 0-7.612 3.407-7.612 7.611.001 4.203 3.409 7.611 7.612 7.611z"/><path d="m323.251 353.072h-22.067c-4.204 0-7.612 3.407-7.612 7.612 0 4.204 3.408 7.612 7.612 7.612h22.067c4.204 0 7.612-3.407 7.612-7.612 0-4.204-3.408-7.612-7.612-7.612z"/><path d="m275.6 353.072h-21.621c-4.204 0-7.611 3.407-7.611 7.612 0 4.204 3.408 7.612 7.611 7.612h21.621c4.204 0 7.611-3.407 7.611-7.612 0-4.204-3.408-7.612-7.611-7.612z"/><path d="m227.629 353.072h-14.456v-14.456c0-4.204-3.408-7.611-7.611-7.611-4.204 0-7.611 3.407-7.611 7.611v22.067c0 4.204 3.408 7.612 7.611 7.612h22.067c4.204 0 7.611-3.407 7.611-7.612 0-4.203-3.408-7.611-7.611-7.611z"/><path d="m205.561 306.023c4.204 0 7.611-3.407 7.611-7.612v-33.976c0-4.204-3.408-7.611-7.611-7.611-4.204 0-7.611 3.407-7.611 7.611v33.976c0 4.204 3.407 7.612 7.611 7.612z"/><path d="m205.561 230.639c4.204 0 7.611-3.407 7.611-7.612v-22.067c0-4.204-3.408-7.611-7.611-7.611-4.204 0-7.611 3.407-7.611 7.611v22.067c0 4.205 3.407 7.612 7.611 7.612z"/></g></g><path d="m20.619 512h143.198c4.484 0 8.119-3.635 8.119-8.119v-75.946c0-46.428-37.637-84.065-84.065-84.065h-75.946c-4.484 0-8.119 3.635-8.119 8.119v143.198c0 9.286 7.527 16.813 16.813 16.813z" fill="#4c5e71"/><path d="m87.871 343.87h-23.342c46.428 0 84.065 37.637 84.065 84.065v75.946c0 4.484-3.635 8.119-8.119 8.119h23.342c4.484 0 8.119-3.635 8.119-8.119v-75.946c0-46.428-37.637-84.065-84.065-84.065z" fill="#3c4958"/><ellipse cx="87.871" cy="427.935" fill="#f4f2f4" rx="50.439" ry="50.439" transform="matrix(.707 -.707 .707 .707 -276.859 187.473)"/><circle cx="87.871" cy="427.935" fill="#4c5e71" r="16.813"/><path d="m87.871 377.496c-4.019 0-7.923.484-11.671 1.372 22.226 5.268 38.767 25.229 38.767 49.066s-16.541 43.798-38.767 49.066c3.748.888 7.652 1.372 11.671 1.372 27.856 0 50.439-22.582 50.439-50.439 0-27.855-22.582-50.437-50.439-50.437z" fill="#e2dfe2"/><path d="m340.065 386.698h-9.202v-371.475h9.201c4.204 0 7.612-3.407 7.612-7.611s-3.408-7.612-7.611-7.612h-33.626c-4.204 0-7.612 3.407-7.612 7.611s3.408 7.611 7.612 7.611h9.202v371.475h-9.201c-4.204 0-7.612 3.407-7.612 7.612s3.408 7.611 7.612 7.611h33.626c4.204 0 7.612-3.407 7.612-7.611s-3.409-7.611-7.613-7.611z" fill="#a7dda7"/></g></svg>